<?xml version="1.0" encoding="UTF-8"?>
<!DOCTYPE svg PUBLIC "-//W3C//DTD SVG 1.1//EN" "http://www.w3.org/Graphics/SVG/1.1/DTD/svg11.dtd">
<svg version="1.1" xmlns="http://www.w3.org/2000/svg" xmlns:xlink="http://www.w3.org/1999/xlink" width="3300" height="2200"  xml:space="preserve" id="appstore">
    <!-- Generated by PaintCode - http://www.paintcodeapp.com -->
    <g id="Notes">
        <rect id="appstore-artboard" stroke="none" fill="rgb(255, 255, 255)" x="0" y="0" width="3300" height="2200" />
        <path id="appstore-bezier" stroke="rgb(0, 0, 0)" stroke-width="0.5" stroke-miterlimit="4" fill="none" d="M 263,292 L 3036,292" />
        
        <text  fill="rgb(0, 0, 0)" font-family="Helvetica-Bold, Helvetica, sans-serif" font-weight="bold" font-size="12" x="263" y="310"><tspan x="263" y="321">Weight/Scale Variations</tspan></text>
        
        <text  fill="rgb(0, 0, 0)" font-family="Helvetica, sans-serif" font-size="12" x="-23.67" y="-0" transform="translate(559.71, 310)"  text-anchor="middle"><tspan x="0" y="11">Ultralight</tspan></text>
        
        <text  fill="rgb(0, 0, 0)" font-family="Helvetica, sans-serif" font-size="12" x="-11.67" y="-0" transform="translate(856.42, 310)"  text-anchor="middle"><tspan x="0" y="11">Thin</tspan></text>
        
        <text  fill="rgb(0, 0, 0)" font-family="Helvetica, sans-serif" font-size="12" x="-13.01" y="-0" transform="translate(1153.13, 310)"  text-anchor="middle"><tspan x="0" y="11">Light</tspan></text>
        
        <text  fill="rgb(0, 0, 0)" font-family="Helvetica, sans-serif" font-size="12" x="-21.01" y="-0" transform="translate(1449.84, 310)"  text-anchor="middle"><tspan x="0" y="11">Regular</tspan></text>
        
        <text  fill="rgb(0, 0, 0)" font-family="Helvetica, sans-serif" font-size="12" x="-21.34" y="-0" transform="translate(1746.56, 310)"  text-anchor="middle"><tspan x="0" y="11">Medium</tspan></text>
        
        <text  fill="rgb(0, 0, 0)" font-family="Helvetica, sans-serif" font-size="12" x="-25.01" y="-0" transform="translate(2043.27, 310)"  text-anchor="middle"><tspan x="0" y="11">Semibold</tspan></text>
        
        <text  fill="rgb(0, 0, 0)" font-family="Helvetica, sans-serif" font-size="12" x="-12.01" y="-0" transform="translate(2339.98, 310)"  text-anchor="middle"><tspan x="0" y="11">Bold</tspan></text>
        
        <text  fill="rgb(0, 0, 0)" font-family="Helvetica, sans-serif" font-size="12" x="-17.01" y="-0" transform="translate(2636.69, 310)"  text-anchor="middle"><tspan x="0" y="11">Heavy</tspan></text>
        
        <text  fill="rgb(0, 0, 0)" font-family="Helvetica, sans-serif" font-size="12" x="-14.67" y="-0" transform="translate(2933.4, 310)"  text-anchor="middle"><tspan x="0" y="11">Black</tspan></text>
        <path id="appstore-bezier2" stroke="rgb(0, 0, 0)" stroke-width="0.5" stroke-miterlimit="4" fill="none" d="M 263,1903 L 3036,1903" />
        <g id="appstore-group2">
            <path id="appstore-bezier3" stroke="none" fill="rgb(0, 0, 0)" d="M 272.25,1933.83 C 276.55,1933.83 280.14,1930.26 280.14,1925.95 280.14,1921.64 276.54,1918.07 272.24,1918.07 267.94,1918.07 264.37,1921.64 264.37,1925.95 264.37,1930.26 267.95,1933.83 272.25,1933.83 Z M 272.25,1932.35 C 268.7,1932.35 265.87,1929.5 265.87,1925.95 265.87,1922.39 268.69,1919.55 272.24,1919.55 275.79,1919.55 278.63,1922.39 278.64,1925.95 278.65,1929.5 275.8,1932.35 272.25,1932.35 Z M 272.23,1929.38 C 272.7,1929.38 272.97,1929.06 272.97,1928.55 L 272.97,1926.68 275,1926.68 C 275.5,1926.68 275.83,1926.43 275.83,1925.96 275.83,1925.48 275.52,1925.22 275,1925.22 L 272.97,1925.22 272.97,1923.19 C 272.97,1922.67 272.7,1922.35 272.23,1922.35 271.76,1922.35 271.51,1922.69 271.51,1923.19 L 271.51,1925.22 269.49,1925.22 C 268.98,1925.22 268.64,1925.48 268.64,1925.96 268.64,1926.43 269,1926.68 269.49,1926.68 L 271.51,1926.68 271.51,1928.55 C 271.51,1929.04 271.76,1929.38 272.23,1929.38 Z M 272.23,1929.38" />
        </g>
        <g id="appstore-group3">
            <path id="appstore-bezier4" stroke="none" fill="rgb(0, 0, 0)" d="M 293.21,1935.91 C 298.66,1935.91 303.18,1931.39 303.18,1925.95 303.18,1920.5 298.65,1915.99 293.21,1915.99 287.77,1915.99 283.25,1920.5 283.25,1925.95 283.25,1931.39 287.78,1935.91 293.21,1935.91 Z M 293.21,1934.25 C 288.61,1934.25 284.92,1930.56 284.92,1925.95 284.92,1921.34 288.6,1917.65 293.21,1917.65 297.81,1917.65 301.51,1921.34 301.52,1925.95 301.53,1930.56 297.82,1934.25 293.21,1934.25 Z M 293.19,1930.33 C 293.71,1930.33 294.02,1929.98 294.02,1929.41 L 294.02,1926.77 296.83,1926.77 C 297.38,1926.77 297.76,1926.49 297.76,1925.97 297.76,1925.44 297.39,1925.14 296.83,1925.14 L 294.02,1925.14 294.02,1922.32 C 294.02,1921.75 293.71,1921.39 293.19,1921.39 292.67,1921.39 292.38,1921.77 292.38,1922.32 L 292.38,1925.14 289.58,1925.14 C 289.02,1925.14 288.64,1925.44 288.64,1925.97 288.64,1926.49 289.04,1926.77 289.58,1926.77 L 292.38,1926.77 292.38,1929.41 C 292.38,1929.96 292.67,1930.33 293.19,1930.33 Z M 293.19,1930.33" />
        </g>
        <g id="appstore-group4">
            <path id="appstore-bezier5" stroke="none" fill="rgb(0, 0, 0)" d="M 319.89,1938.66 C 326.86,1938.66 332.62,1932.9 332.62,1925.95 332.62,1918.99 326.85,1913.22 319.88,1913.22 312.93,1913.22 307.18,1918.99 307.18,1925.95 307.18,1932.9 312.94,1938.66 319.89,1938.66 Z M 319.89,1936.85 C 313.86,1936.85 309.01,1931.98 309.01,1925.95 309.01,1919.9 313.85,1915.05 319.88,1915.05 325.93,1915.05 330.78,1919.9 330.79,1925.95 330.8,1931.98 325.94,1936.85 319.89,1936.85 Z M 319.87,1931.61 C 320.44,1931.61 320.78,1931.22 320.78,1930.62 L 320.78,1926.87 324.7,1926.87 C 325.3,1926.87 325.71,1926.54 325.71,1925.98 325.71,1925.4 325.31,1925.06 324.7,1925.06 L 320.78,1925.06 320.78,1921.13 C 320.78,1920.52 320.44,1920.13 319.87,1920.13 319.3,1920.13 318.98,1920.54 318.98,1921.13 L 318.98,1925.06 315.07,1925.06 C 314.46,1925.06 314.05,1925.4 314.05,1925.98 314.05,1926.54 314.47,1926.87 315.07,1926.87 L 318.98,1926.87 318.98,1930.62 C 318.98,1931.2 319.3,1931.61 319.87,1931.61 Z M 319.87,1931.61" />
        </g>
        
        <text  fill="rgb(0, 0, 0)" font-family="Helvetica-Bold, Helvetica, sans-serif" font-weight="bold" font-size="12" x="263" y="1941"><tspan x="263" y="1952">Design Variations</tspan></text>
        
        <text  fill="rgb(0, 0, 0)" font-family="Helvetica, sans-serif" font-size="12" x="263" y="1959"><tspan x="263" y="1970">Symbols are supported in up to nine weights and three scales.</tspan></text>
        
        <text  fill="rgb(0, 0, 0)" font-family="Helvetica, sans-serif" font-size="12" x="263" y="1977"><tspan x="263" y="1988">For optimal layout with text and other symbols, vertically align</tspan></text>
        
        <text  fill="rgb(0, 0, 0)" font-family="Helvetica, sans-serif" font-size="12" x="263" y="1995"><tspan x="263" y="2006">symbols with the adjacent text.</tspan></text>
        <path id="appstore-bezier6" stroke="rgb(0, 174, 239)" stroke-width="0.5" stroke-miterlimit="4" fill="none" d="M 776,1919 L 776,1933" />
        <g id="appstore-group5">
            <path id="appstore-bezier7" stroke="none" fill="rgb(0, 0, 0)" d="M 779.31,1933.13 C 779.83,1933.13 780.08,1932.93 780.27,1932.39 L 781.53,1928.94 787.29,1928.94 788.55,1932.39 C 788.73,1932.93 788.99,1933.13 789.5,1933.13 790.01,1933.13 790.35,1932.81 790.35,1932.33 790.35,1932.16 790.32,1932.01 790.24,1931.8 L 785.66,1919.61 C 785.43,1919.01 785.03,1918.71 784.41,1918.71 783.8,1918.71 783.39,1919.01 783.18,1919.6 L 778.6,1931.81 C 778.52,1932.02 778.49,1932.17 778.49,1932.34 778.49,1932.82 778.8,1933.13 779.31,1933.13 Z M 782.01,1927.46 L 784.38,1920.89 784.43,1920.89 786.8,1927.46 782.01,1927.46 Z M 782.01,1927.46" />
        </g>
        <path id="appstore-bezier8" stroke="rgb(0, 174, 239)" stroke-width="0.5" stroke-miterlimit="4" fill="none" d="M 792.84,1919 L 792.84,1933" />
        
        <text  fill="rgb(0, 0, 0)" font-family="Helvetica-Bold, Helvetica, sans-serif" font-weight="bold" font-size="12" x="776" y="1941"><tspan x="776" y="1952">Margins</tspan></text>
        
        <text  fill="rgb(0, 0, 0)" font-family="Helvetica, sans-serif" font-size="12" x="776" y="1959"><tspan x="776" y="1970">Leading and trailing margins on the left and right side of each symbol</tspan></text>
        
        <text  fill="rgb(0, 0, 0)" font-family="Helvetica, sans-serif" font-size="12" x="776" y="1977"><tspan x="776" y="1988">can be adjusted by modifying the x-location of the margin guidelines.</tspan></text>
        
        <text  fill="rgb(0, 0, 0)" font-family="Helvetica, sans-serif" font-size="12" x="776" y="1995"><tspan x="776" y="2006">Modifications are automatically applied proportionally to all</tspan></text>
        
        <text  fill="rgb(0, 0, 0)" font-family="Helvetica, sans-serif" font-size="12" x="776" y="2013"><tspan x="776" y="2024">scales and weights.</tspan></text>
        <g id="appstore-group6">
            <path id="appstore-bezier9" stroke="none" fill="rgb(0, 0, 0)" d="M 1291.84,1934.87 L 1293.54,1936.57 C 1294.4,1937.44 1295.39,1937.38 1296.31,1936.36 L 1306.49,1925.15 C 1306.75,1925.24 1307.03,1925.22 1307.34,1925.16 L 1308.4,1924.96 1309.07,1925.64 1309.03,1926.19 C 1308.99,1926.69 1309.12,1927.07 1309.61,1927.55 L 1310.37,1928.29 C 1310.85,1928.77 1311.46,1928.8 1311.93,1928.33 L 1314.84,1925.41 C 1315.31,1924.94 1315.29,1924.35 1314.81,1923.87 L 1314.04,1923.11 C 1313.56,1922.63 1313.19,1922.47 1312.71,1922.51 L 1312.13,1922.56 1311.49,1921.93 1311.73,1920.8 C 1311.86,1920.24 1311.71,1919.8 1311.12,1919.21 L 1308.92,1917.02 C 1305.58,1913.7 1301.15,1913.78 1298.26,1916.67 1297.84,1917.08 1297.81,1917.66 1298.04,1918.05 1298.28,1918.41 1298.74,1918.64 1299.38,1918.48 1300.85,1918.14 1302.37,1918.08 1303.79,1919.02 L 1303.21,1920.47 C 1303.01,1920.95 1302.98,1921.35 1303.11,1921.71 L 1292.05,1932.1 C 1291.06,1933.02 1290.98,1934 1291.84,1934.87 Z M 1299.75,1917.04 C 1302.18,1915.27 1305.47,1915.57 1307.7,1917.79 L 1310.13,1920.21 C 1310.37,1920.44 1310.41,1920.63 1310.34,1920.97 L 1310.02,1922.45 1311.52,1923.94 1312.51,1923.88 C 1312.76,1923.87 1312.84,1923.89 1313.03,1924.08 L 1313.61,1924.66 1311.17,1927.1 1310.59,1926.53 C 1310.4,1926.33 1310.37,1926.25 1310.38,1925.99 L 1310.45,1925.01 1308.95,1923.53 1307.43,1923.78 C 1307.11,1923.85 1306.96,1923.82 1306.71,1923.59 L 1304.71,1921.58 C 1304.46,1921.35 1304.43,1921.18 1304.59,1920.81 L 1305.46,1918.72 C 1303.9,1917.27 1301.87,1916.64 1299.84,1917.24 1299.68,1917.28 1299.62,1917.15 1299.75,1917.04 Z M 1294.27,1935.3 L 1293.1,1934.14 C 1292.63,1933.68 1292.74,1933.34 1293.14,1932.98 L 1303.95,1922.8 1305.42,1924.29 1295.43,1935.28 C 1295.07,1935.68 1294.74,1935.77 1294.27,1935.3 Z M 1294.27,1935.3" />
        </g>
        
        <text  fill="rgb(0, 0, 0)" font-family="Helvetica-Bold, Helvetica, sans-serif" font-weight="bold" font-size="12" x="1289" y="1941"><tspan x="1289" y="1952">Exporting</tspan></text>
        
        <text  fill="rgb(0, 0, 0)" font-family="Helvetica, sans-serif" font-size="12" x="1289" y="1959"><tspan x="1289" y="1970">Symbols should be outlined when exporting to ensure the</tspan></text>
        
        <text  fill="rgb(0, 0, 0)" font-family="Helvetica, sans-serif" font-size="12" x="1289" y="1977"><tspan x="1289" y="1988">design is preserved when submitting to Xcode.</tspan></text>
        
        <text  fill="rgb(0, 0, 0)" font-family="Helvetica, sans-serif" font-size="12" x="-77.16" y="-0" transform="translate(3036, 1921)"  text-anchor="end"><tspan x="0" y="11">Template v.2.0</tspan></text>
        
        <text  fill="rgb(0, 0, 0)" font-family="Helvetica, sans-serif" font-size="12" x="-157.42" y="-0" transform="translate(3036, 1939)"  text-anchor="end"><tspan x="0" y="11">Requires Xcode 12 or greater</tspan></text>
        
        <text  fill="rgb(0, 0, 0)" font-family="Helvetica, sans-serif" font-size="12" x="-116.74" y="-0" transform="translate(3036, 1957)"  text-anchor="end"><tspan x="0" y="11">Generated from globe</tspan></text>
        
        <text  fill="rgb(0, 0, 0)" font-family="Helvetica, sans-serif" font-size="12" x="-114.08" y="-0" transform="translate(3036, 1975)"  text-anchor="end"><tspan x="0" y="11">Typeset at 100 points</tspan></text>
        
        <text  fill="rgb(0, 0, 0)" font-family="Helvetica, sans-serif" font-size="12" x="263" y="714"><tspan x="263" y="725">Small</tspan></text>
        
        <text  fill="rgb(0, 0, 0)" font-family="Helvetica, sans-serif" font-size="12" x="263" y="1144"><tspan x="263" y="1155">Medium</tspan></text>
        
        <text  fill="rgb(0, 0, 0)" font-family="Helvetica, sans-serif" font-size="12" x="263" y="1574"><tspan x="263" y="1585">Large</tspan></text>
    </g>
    <g id="Guides">
        <g id="H-reference">
            <path id="appstore-bezier10" stroke="none" fill="rgb(39, 170, 225)" d="M 339.98,696 L 342.66,696 351.99,671.54 384.7,671.54 394.08,696 396.71,696 369.62,625.54 367.12,625.54 339.98,696 Z M 368.3,628.86 L 368.39,628.86 383.87,669.29 352.87,669.29 368.3,628.86 Z M 368.3,628.86" />
        </g>
        <path id="Baseline-S" stroke="rgb(39, 170, 225)" stroke-width="0.5" stroke-miterlimit="4" fill="none" d="M 263,696 L 3036,696" />
        <path id="Capline-S" stroke="rgb(39, 170, 225)" stroke-width="0.5" stroke-miterlimit="4" fill="none" d="M 263,625.54 L 3036,625.54" />
        <g id="H-reference 2">
            <path id="appstore-bezier13" stroke="none" fill="rgb(39, 170, 225)" d="M 339.98,1126 L 342.66,1126 351.99,1101.54 384.7,1101.54 394.08,1126 396.71,1126 369.62,1055.54 367.12,1055.54 339.98,1126 Z M 368.3,1058.86 L 368.39,1058.86 383.87,1099.29 352.87,1099.29 368.3,1058.86 Z M 368.3,1058.86" />
        </g>
        <path id="Baseline-M" stroke="rgb(39, 170, 225)" stroke-width="0.5" stroke-miterlimit="4" fill="none" d="M 263,1126 L 3036,1126" />
        <path id="Capline-M" stroke="rgb(39, 170, 225)" stroke-width="0.5" stroke-miterlimit="4" fill="none" d="M 263,1055.54 L 3036,1055.54" />
        <g id="H-reference 3">
            <path id="appstore-bezier16" stroke="none" fill="rgb(39, 170, 225)" d="M 339.98,1556 L 342.66,1556 351.99,1531.54 384.7,1531.54 394.08,1556 396.71,1556 369.62,1485.54 367.12,1485.54 339.98,1556 Z M 368.3,1488.86 L 368.39,1488.86 383.87,1529.29 352.87,1529.29 368.3,1488.86 Z M 368.3,1488.86" />
        </g>
        <path id="Baseline-L" stroke="rgb(39, 170, 225)" stroke-width="0.5" stroke-miterlimit="4" fill="none" d="M 263,1556 L 3036,1556" />
        <path id="Capline-L" stroke="rgb(39, 170, 225)" stroke-width="0.5" stroke-miterlimit="4" fill="none" d="M 263,1485.54 L 3036,1485.54" />
        <path id="left-margin" stroke="rgb(0, 174, 239)" stroke-width="0.5" stroke-miterlimit="4" fill="none" d="M 1391.3,1030.79 L 1391.3,1150.12" />
        <path id="right-margin" stroke="rgb(0, 174, 239)" stroke-width="0.5" stroke-miterlimit="4" fill="none" d="M 1508.39,1030.79 L 1508.39,1150.12" />
    </g>
    <g id="Symbols">
        <g id="Black-L">
            <path id="appstore-bezier22" stroke="rgb(0, 0, 0)" stroke-width="5" stroke-linecap="round" stroke-linejoin="round" stroke-miterlimit="10" fill="rgb(0, 0, 0)" d="M 2931.49,1460.71 C 2931.49,1460.71 2932.81,1463.26 2934.36,1466.23 2936.16,1462.77 2937.23,1460.71 2937.23,1460.71 2939.59,1456.17 2944.78,1454.65 2948.82,1457.31 2952.85,1459.97 2954.21,1465.81 2951.84,1470.35 2951.84,1470.35 2941.05,1491.09 2931.05,1510.31 2926.67,1518.72 2922.45,1526.85 2919.35,1532.81 L 2937.04,1532.81 C 2939.68,1534.79 2941.96,1537.41 2943.59,1540.62 2945.47,1544.29 2945.88,1548.24 2945.22,1551.87 L 2879.97,1551.87 C 2875.29,1551.87 2871.5,1547.6 2871.5,1542.34 2871.5,1537.08 2875.29,1532.81 2879.97,1532.81 L 2899.72,1532.81 C 2904.37,1523.86 2911.63,1509.92 2918.52,1496.67 2920.59,1492.69 2922.63,1488.78 2924.55,1485.09 2921.04,1478.34 2916.88,1470.36 2916.88,1470.36 2914.51,1465.81 2915.87,1459.97 2919.9,1457.31 2921.22,1456.44 2922.65,1456.02 2924.07,1456 2927.02,1455.96 2929.89,1457.65 2931.49,1460.71 Z M 2949.02,1494.4 C 2949.02,1494.39 2959.26,1514.07 2969.01,1532.81 L 2990.03,1532.81 C 2994.71,1532.81 2998.5,1537.08 2998.5,1542.34 2998.5,1547.6 2994.71,1551.87 2990.03,1551.87 L 2978.93,1551.87 C 2983.28,1560.23 2986.32,1566.08 2986.32,1566.08 2988.69,1570.63 2987.34,1576.47 2983.3,1579.13 2981.96,1580.01 2980.48,1580.43 2979.03,1580.43 2976.12,1580.43 2973.29,1578.75 2971.72,1575.72 L 2945.06,1524.49 C 2941.53,1517.11 2941.66,1508.16 2945.52,1500.93 L 2949.02,1494.39 2949.02,1494.4 Z M 2891.08,1561.42 C 2895.43,1561.57 2899.05,1563.78 2901.53,1567.03 L 2896.98,1575.79 C 2895.4,1578.81 2892.57,1580.5 2889.66,1580.5 2888.21,1580.5 2886.74,1580.09 2885.39,1579.19 2881.36,1576.53 2880,1570.69 2882.37,1566.15 L 2884.25,1562.54 C 2886.43,1561.77 2888.72,1561.35 2891.08,1561.42 Z M 2891.08,1561.42" />
        </g>
        <g id="Heavy-L">
            <path id="appstore-bezier23" stroke="rgb(0, 0, 0)" stroke-width="4" stroke-linecap="round" stroke-linejoin="round" stroke-miterlimit="10" fill="rgb(0, 0, 0)" d="M 2633.49,1460.71 C 2633.49,1460.71 2634.81,1463.26 2636.36,1466.23 2638.16,1462.77 2639.23,1460.71 2639.23,1460.71 2641.59,1456.17 2646.78,1454.65 2650.82,1457.31 2654.85,1459.97 2656.21,1465.81 2653.84,1470.35 2653.84,1470.35 2643.05,1491.09 2633.05,1510.31 2628.67,1518.72 2624.45,1526.85 2621.35,1532.81 L 2639.04,1532.81 C 2641.68,1534.79 2643.96,1537.41 2645.59,1540.62 2647.47,1544.29 2647.88,1548.24 2647.22,1551.87 L 2581.97,1551.87 C 2577.29,1551.87 2573.5,1547.6 2573.5,1542.34 2573.5,1537.08 2577.29,1532.81 2581.97,1532.81 L 2601.72,1532.81 C 2606.37,1523.86 2613.63,1509.92 2620.52,1496.67 2622.59,1492.69 2624.63,1488.78 2626.55,1485.09 2623.04,1478.34 2618.88,1470.36 2618.88,1470.36 2616.51,1465.81 2617.87,1459.97 2621.9,1457.31 2623.22,1456.44 2624.65,1456.02 2626.07,1456 2629.02,1455.96 2631.89,1457.65 2633.49,1460.71 Z M 2651.02,1494.4 C 2651.02,1494.39 2661.26,1514.07 2671.01,1532.81 L 2692.03,1532.81 C 2696.71,1532.81 2700.5,1537.08 2700.5,1542.34 2700.5,1547.6 2696.71,1551.87 2692.03,1551.87 L 2680.93,1551.87 C 2685.28,1560.23 2688.32,1566.08 2688.32,1566.08 2690.69,1570.63 2689.34,1576.47 2685.3,1579.13 2683.96,1580.01 2682.48,1580.43 2681.03,1580.43 2678.12,1580.43 2675.29,1578.75 2673.72,1575.72 L 2647.06,1524.49 C 2643.53,1517.11 2643.66,1508.16 2647.52,1500.93 L 2651.02,1494.39 2651.02,1494.4 Z M 2593.08,1561.42 C 2597.43,1561.57 2601.05,1563.78 2603.53,1567.03 L 2598.98,1575.79 C 2597.4,1578.81 2594.57,1580.5 2591.66,1580.5 2590.21,1580.5 2588.74,1580.09 2587.39,1579.19 2583.36,1576.53 2582,1570.69 2584.37,1566.15 L 2586.25,1562.54 C 2588.43,1561.77 2590.72,1561.35 2593.08,1561.42 Z M 2593.08,1561.42" />
        </g>
        <g id="Bold-L">
            <path id="appstore-bezier24" stroke="rgb(0, 0, 0)" stroke-width="3" stroke-linecap="round" stroke-linejoin="round" stroke-miterlimit="10" fill="rgb(0, 0, 0)" d="M 2338.49,1460.71 C 2338.49,1460.71 2339.81,1463.26 2341.36,1466.23 2343.16,1462.77 2344.23,1460.71 2344.23,1460.71 2346.59,1456.17 2351.78,1454.65 2355.82,1457.31 2359.85,1459.97 2361.21,1465.81 2358.84,1470.35 2358.84,1470.35 2348.05,1491.09 2338.05,1510.31 2333.67,1518.72 2329.45,1526.85 2326.35,1532.81 L 2344.04,1532.81 C 2346.68,1534.79 2348.96,1537.41 2350.59,1540.62 2352.47,1544.29 2352.88,1548.24 2352.22,1551.87 L 2286.97,1551.87 C 2282.29,1551.87 2278.5,1547.6 2278.5,1542.34 2278.5,1537.08 2282.29,1532.81 2286.97,1532.81 L 2306.72,1532.81 C 2311.37,1523.86 2318.63,1509.92 2325.52,1496.67 2327.59,1492.69 2329.63,1488.78 2331.55,1485.09 2328.04,1478.34 2323.88,1470.36 2323.88,1470.36 2321.51,1465.81 2322.87,1459.97 2326.9,1457.31 2328.22,1456.44 2329.65,1456.02 2331.07,1456 2334.02,1455.96 2336.89,1457.65 2338.49,1460.71 Z M 2356.02,1494.4 C 2356.02,1494.39 2366.26,1514.07 2376.01,1532.81 L 2397.03,1532.81 C 2401.71,1532.81 2405.5,1537.08 2405.5,1542.34 2405.5,1547.6 2401.71,1551.87 2397.03,1551.87 L 2385.93,1551.87 C 2390.28,1560.23 2393.32,1566.08 2393.32,1566.08 2395.69,1570.63 2394.34,1576.47 2390.3,1579.13 2388.96,1580.01 2387.48,1580.43 2386.03,1580.43 2383.12,1580.43 2380.29,1578.75 2378.72,1575.72 L 2352.06,1524.49 C 2348.53,1517.11 2348.66,1508.16 2352.52,1500.93 L 2356.02,1494.39 2356.02,1494.4 Z M 2298.08,1561.42 C 2302.43,1561.57 2306.05,1563.78 2308.53,1567.03 L 2303.98,1575.79 C 2302.4,1578.81 2299.57,1580.5 2296.66,1580.5 2295.21,1580.5 2293.74,1580.09 2292.39,1579.19 2288.36,1576.53 2287,1570.69 2289.37,1566.15 L 2291.25,1562.54 C 2293.43,1561.77 2295.72,1561.35 2298.08,1561.42 Z M 2298.08,1561.42" />
        </g>
        <g id="Semibold-L">
            <path id="appstore-bezier25" stroke="rgb(0, 0, 0)" stroke-width="2" stroke-linecap="round" stroke-linejoin="round" stroke-miterlimit="10" fill="rgb(0, 0, 0)" d="M 2042.49,1460.71 C 2042.49,1460.71 2043.81,1463.26 2045.36,1466.23 2047.16,1462.77 2048.23,1460.71 2048.23,1460.71 2050.59,1456.17 2055.78,1454.65 2059.82,1457.31 2063.85,1459.97 2065.21,1465.81 2062.84,1470.35 2062.84,1470.35 2052.05,1491.09 2042.05,1510.31 2037.67,1518.72 2033.45,1526.85 2030.35,1532.81 L 2048.04,1532.81 C 2050.68,1534.79 2052.96,1537.41 2054.59,1540.62 2056.47,1544.29 2056.88,1548.24 2056.22,1551.87 L 1990.97,1551.87 C 1986.29,1551.87 1982.5,1547.6 1982.5,1542.34 1982.5,1537.08 1986.29,1532.81 1990.97,1532.81 L 2010.72,1532.81 C 2015.37,1523.86 2022.63,1509.92 2029.52,1496.67 2031.59,1492.69 2033.63,1488.78 2035.55,1485.09 2032.04,1478.34 2027.88,1470.36 2027.88,1470.36 2025.51,1465.81 2026.87,1459.97 2030.9,1457.31 2032.22,1456.44 2033.65,1456.02 2035.07,1456 2038.02,1455.96 2040.89,1457.65 2042.49,1460.71 Z M 2060.02,1494.4 C 2060.02,1494.39 2070.26,1514.07 2080.01,1532.81 L 2101.03,1532.81 C 2105.71,1532.81 2109.5,1537.08 2109.5,1542.34 2109.5,1547.6 2105.71,1551.87 2101.03,1551.87 L 2089.93,1551.87 C 2094.28,1560.23 2097.32,1566.08 2097.32,1566.08 2099.69,1570.63 2098.34,1576.47 2094.3,1579.13 2092.96,1580.01 2091.48,1580.43 2090.03,1580.43 2087.12,1580.43 2084.29,1578.75 2082.72,1575.72 L 2056.06,1524.49 C 2052.53,1517.11 2052.66,1508.16 2056.52,1500.93 L 2060.02,1494.39 2060.02,1494.4 Z M 2002.08,1561.42 C 2006.43,1561.57 2010.05,1563.78 2012.53,1567.03 L 2007.98,1575.79 C 2006.4,1578.81 2003.57,1580.5 2000.66,1580.5 1999.21,1580.5 1997.74,1580.09 1996.39,1579.19 1992.36,1576.53 1991,1570.69 1993.37,1566.15 L 1995.25,1562.54 C 1997.43,1561.77 1999.72,1561.35 2002.08,1561.42 Z M 2002.08,1561.42" />
        </g>
        <g id="Medium-L">
            <path id="appstore-bezier11" stroke="rgb(0, 0, 0)" stroke-width="1" stroke-linecap="round" stroke-linejoin="round" stroke-miterlimit="10" fill="rgb(0, 0, 0)" d="M 1745.49,1460.71 C 1745.49,1460.71 1746.81,1463.26 1748.36,1466.23 1750.16,1462.77 1751.23,1460.71 1751.23,1460.71 1753.59,1456.17 1758.78,1454.65 1762.82,1457.31 1766.85,1459.97 1768.21,1465.81 1765.84,1470.35 1765.84,1470.35 1755.05,1491.09 1745.05,1510.31 1740.67,1518.72 1736.45,1526.85 1733.35,1532.81 L 1751.04,1532.81 C 1753.68,1534.79 1755.96,1537.41 1757.59,1540.62 1759.47,1544.29 1759.88,1548.24 1759.22,1551.87 L 1693.97,1551.87 C 1689.29,1551.87 1685.5,1547.6 1685.5,1542.34 1685.5,1537.08 1689.29,1532.81 1693.97,1532.81 L 1713.72,1532.81 C 1718.37,1523.86 1725.63,1509.92 1732.52,1496.67 1734.59,1492.69 1736.63,1488.78 1738.55,1485.09 1735.04,1478.34 1730.88,1470.36 1730.88,1470.36 1728.51,1465.81 1729.87,1459.97 1733.9,1457.31 1735.22,1456.44 1736.65,1456.02 1738.07,1456 1741.02,1455.96 1743.89,1457.65 1745.49,1460.71 Z M 1763.02,1494.4 C 1763.02,1494.39 1773.26,1514.07 1783.01,1532.81 L 1804.03,1532.81 C 1808.71,1532.81 1812.5,1537.08 1812.5,1542.34 1812.5,1547.6 1808.71,1551.87 1804.03,1551.87 L 1792.93,1551.87 C 1797.28,1560.23 1800.32,1566.08 1800.32,1566.08 1802.69,1570.63 1801.34,1576.47 1797.3,1579.13 1795.96,1580.01 1794.48,1580.43 1793.03,1580.43 1790.12,1580.43 1787.29,1578.75 1785.72,1575.72 L 1759.06,1524.49 C 1755.53,1517.11 1755.66,1508.16 1759.52,1500.93 L 1763.02,1494.39 1763.02,1494.4 Z M 1705.08,1561.42 C 1709.43,1561.57 1713.05,1563.78 1715.53,1567.03 L 1710.98,1575.79 C 1709.4,1578.81 1706.57,1580.5 1703.66,1580.5 1702.21,1580.5 1700.74,1580.09 1699.39,1579.19 1695.36,1576.53 1694,1570.69 1696.37,1566.15 L 1698.25,1562.54 C 1700.43,1561.77 1702.72,1561.35 1705.08,1561.42 Z M 1705.08,1561.42" />
        </g>
        <g id="Regular-L">
            <path id="appstore-bezier27" stroke="none" fill="rgb(0, 0, 0)" d="M 1454.99,1460.71 C 1454.99,1460.71 1456.31,1463.26 1457.86,1466.23 1459.66,1462.77 1460.73,1460.71 1460.73,1460.71 1463.09,1456.17 1468.28,1454.65 1472.32,1457.31 1476.35,1459.97 1477.71,1465.81 1475.34,1470.35 1475.34,1470.35 1464.55,1491.09 1454.55,1510.31 1450.17,1518.72 1445.95,1526.85 1442.85,1532.81 L 1460.54,1532.81 C 1463.18,1534.79 1465.46,1537.41 1467.09,1540.62 1468.97,1544.29 1469.38,1548.24 1468.72,1551.87 L 1403.47,1551.87 C 1398.79,1551.87 1395,1547.6 1395,1542.34 1395,1537.08 1398.79,1532.81 1403.47,1532.81 L 1423.22,1532.81 C 1427.87,1523.86 1435.13,1509.92 1442.02,1496.67 1444.09,1492.69 1446.13,1488.78 1448.05,1485.09 1444.54,1478.34 1440.38,1470.36 1440.38,1470.36 1438.01,1465.81 1439.37,1459.97 1443.4,1457.31 1444.72,1456.44 1446.15,1456.02 1447.57,1456 1450.52,1455.96 1453.39,1457.65 1454.99,1460.71 Z M 1472.52,1494.4 C 1472.52,1494.39 1482.76,1514.07 1492.51,1532.81 L 1513.53,1532.81 C 1518.21,1532.81 1522,1537.08 1522,1542.34 1522,1547.6 1518.21,1551.87 1513.53,1551.87 L 1502.43,1551.87 C 1506.78,1560.23 1509.82,1566.08 1509.82,1566.08 1512.19,1570.63 1510.84,1576.47 1506.8,1579.13 1505.46,1580.01 1503.98,1580.43 1502.53,1580.43 1499.62,1580.43 1496.79,1578.75 1495.22,1575.72 L 1468.56,1524.49 C 1465.03,1517.11 1465.16,1508.16 1469.02,1500.93 L 1472.52,1494.39 1472.52,1494.4 Z M 1414.58,1561.42 C 1418.93,1561.57 1422.55,1563.78 1425.03,1567.03 L 1420.48,1575.79 C 1418.9,1578.81 1416.07,1580.5 1413.16,1580.5 1411.71,1580.5 1410.24,1580.09 1408.89,1579.19 1404.86,1576.53 1403.5,1570.69 1405.87,1566.15 L 1407.75,1562.54 C 1409.93,1561.77 1412.22,1561.35 1414.58,1561.42 Z M 1414.58,1561.42" />
        </g>
        <g id="Light-L">
            <path id="appstore-bezier28" stroke="none" fill="rgb(0, 0, 0)" d="M 1150.49,1460.71 C 1150.49,1460.71 1151.81,1463.26 1153.36,1466.23 1155.16,1462.77 1156.23,1460.71 1156.23,1460.71 1158.59,1456.17 1163.78,1454.65 1167.82,1457.31 1171.85,1459.97 1173.21,1465.81 1170.84,1470.35 1170.84,1470.35 1160.05,1491.09 1150.05,1510.31 1145.67,1518.72 1141.45,1526.85 1138.35,1532.81 L 1156.04,1532.81 C 1158.68,1534.79 1160.96,1537.41 1162.59,1540.62 1164.47,1544.29 1164.88,1548.24 1164.22,1551.87 L 1098.97,1551.87 C 1094.29,1551.87 1090.5,1547.6 1090.5,1542.34 1090.5,1537.08 1094.29,1532.81 1098.97,1532.81 L 1118.72,1532.81 C 1123.37,1523.86 1130.63,1509.92 1137.52,1496.67 1139.59,1492.69 1141.63,1488.78 1143.55,1485.09 1140.04,1478.34 1135.88,1470.36 1135.88,1470.36 1133.51,1465.81 1134.87,1459.97 1138.9,1457.31 1140.22,1456.44 1141.65,1456.02 1143.07,1456 1146.02,1455.96 1148.89,1457.65 1150.49,1460.71 Z M 1168.02,1494.4 C 1168.02,1494.39 1178.26,1514.07 1188.01,1532.81 L 1209.03,1532.81 C 1213.71,1532.81 1217.5,1537.08 1217.5,1542.34 1217.5,1547.6 1213.71,1551.87 1209.03,1551.87 L 1197.93,1551.87 C 1202.28,1560.23 1205.32,1566.08 1205.32,1566.08 1207.69,1570.63 1206.34,1576.47 1202.3,1579.13 1200.96,1580.01 1199.48,1580.43 1198.03,1580.43 1195.12,1580.43 1192.29,1578.75 1190.72,1575.72 L 1164.06,1524.49 C 1160.53,1517.11 1160.66,1508.16 1164.52,1500.93 L 1168.02,1494.39 1168.02,1494.4 Z M 1110.08,1561.42 C 1114.43,1561.57 1118.05,1563.78 1120.53,1567.03 L 1115.98,1575.79 C 1114.4,1578.81 1111.57,1580.5 1108.66,1580.5 1107.21,1580.5 1105.74,1580.09 1104.39,1579.19 1100.36,1576.53 1099,1570.69 1101.37,1566.15 L 1103.25,1562.54 C 1105.43,1561.77 1107.72,1561.35 1110.08,1561.42 Z M 1110.08,1561.42" />
        </g>
        <g id="Thin-L">
            <path id="appstore-bezier29" stroke="none" fill="rgb(0, 0, 0)" d="M 854.49,1460.71 C 854.49,1460.71 855.81,1463.26 857.36,1466.23 859.16,1462.77 860.23,1460.71 860.23,1460.71 862.59,1456.17 867.78,1454.65 871.82,1457.31 875.85,1459.97 877.21,1465.81 874.84,1470.35 874.84,1470.35 864.05,1491.09 854.05,1510.31 849.67,1518.72 845.45,1526.85 842.35,1532.81 L 860.04,1532.81 C 862.68,1534.79 864.96,1537.41 866.59,1540.62 868.47,1544.29 868.88,1548.24 868.22,1551.87 L 802.97,1551.87 C 798.29,1551.87 794.5,1547.6 794.5,1542.34 794.5,1537.08 798.29,1532.81 802.97,1532.81 L 822.72,1532.81 C 827.37,1523.86 834.63,1509.92 841.52,1496.67 843.59,1492.69 845.63,1488.78 847.55,1485.09 844.04,1478.34 839.88,1470.36 839.88,1470.36 837.51,1465.81 838.87,1459.97 842.9,1457.31 844.22,1456.44 845.65,1456.02 847.07,1456 850.02,1455.96 852.89,1457.65 854.49,1460.71 Z M 872.02,1494.4 C 872.02,1494.39 882.26,1514.07 892.01,1532.81 L 913.03,1532.81 C 917.71,1532.81 921.5,1537.08 921.5,1542.34 921.5,1547.6 917.71,1551.87 913.03,1551.87 L 901.93,1551.87 C 906.28,1560.23 909.32,1566.08 909.32,1566.08 911.69,1570.63 910.34,1576.47 906.3,1579.13 904.96,1580.01 903.48,1580.43 902.03,1580.43 899.12,1580.43 896.29,1578.75 894.72,1575.72 L 868.06,1524.49 C 864.53,1517.11 864.66,1508.16 868.52,1500.93 L 872.02,1494.39 872.02,1494.4 Z M 814.08,1561.42 C 818.43,1561.57 822.05,1563.78 824.53,1567.03 L 819.98,1575.79 C 818.4,1578.81 815.57,1580.5 812.66,1580.5 811.21,1580.5 809.74,1580.09 808.39,1579.19 804.36,1576.53 803,1570.69 805.37,1566.15 L 807.25,1562.54 C 809.43,1561.77 811.72,1561.35 814.08,1561.42 Z M 814.08,1561.42" />
        </g>
        <g id="Ultralight-L">
            <path id="appstore-bezier38" stroke="none" fill="rgb(0, 0, 0)" d="M 556.99,1460.71 C 556.99,1460.71 558.31,1463.26 559.86,1466.23 561.66,1462.77 562.73,1460.71 562.73,1460.71 565.09,1456.17 570.28,1454.65 574.32,1457.31 578.35,1459.97 579.71,1465.81 577.34,1470.35 577.34,1470.35 566.55,1491.09 556.55,1510.31 552.17,1518.72 547.95,1526.85 544.85,1532.81 L 562.54,1532.81 C 565.18,1534.79 567.46,1537.41 569.09,1540.62 570.97,1544.29 571.38,1548.24 570.72,1551.87 L 505.47,1551.87 C 500.79,1551.87 497,1547.6 497,1542.34 497,1537.08 500.79,1532.81 505.47,1532.81 L 525.22,1532.81 C 529.87,1523.86 537.13,1509.92 544.02,1496.67 546.09,1492.69 548.13,1488.78 550.05,1485.09 546.54,1478.34 542.38,1470.36 542.38,1470.36 540.01,1465.81 541.37,1459.97 545.4,1457.31 546.72,1456.44 548.15,1456.02 549.57,1456 552.52,1455.96 555.39,1457.65 556.99,1460.71 Z M 574.52,1494.4 C 574.52,1494.39 584.76,1514.07 594.51,1532.81 L 615.53,1532.81 C 620.21,1532.81 624,1537.08 624,1542.34 624,1547.6 620.21,1551.87 615.53,1551.87 L 604.43,1551.87 C 608.78,1560.23 611.82,1566.08 611.82,1566.08 614.19,1570.63 612.84,1576.47 608.8,1579.13 607.46,1580.01 605.98,1580.43 604.53,1580.43 601.62,1580.43 598.79,1578.75 597.22,1575.72 L 570.56,1524.49 C 567.03,1517.11 567.16,1508.16 571.02,1500.93 L 574.52,1494.39 574.52,1494.4 Z M 516.58,1561.42 C 520.93,1561.57 524.55,1563.78 527.03,1567.03 L 522.48,1575.79 C 520.9,1578.81 518.07,1580.5 515.16,1580.5 513.71,1580.5 512.24,1580.09 510.89,1579.19 506.86,1576.53 505.5,1570.69 507.87,1566.15 L 509.75,1562.54 C 511.93,1561.77 514.22,1561.35 516.58,1561.42 Z M 516.58,1561.42" />
        </g>
        <g id="Black-M">
            <path id="appstore-bezier39" stroke="rgb(0, 0, 0)" stroke-width="5" stroke-linecap="round" stroke-linejoin="round" stroke-miterlimit="10" fill="rgb(0, 0, 0)" d="M 2927.99,1041.55 C 2927.99,1041.55 2929.12,1043.74 2930.45,1046.29 2932,1043.32 2932.91,1041.55 2932.91,1041.55 2934.94,1037.65 2939.39,1036.34 2942.86,1038.63 2946.32,1040.91 2947.48,1045.93 2945.46,1049.83 2945.46,1049.83 2936.19,1067.66 2927.61,1084.18 2923.85,1091.41 2920.23,1098.39 2917.56,1103.51 L 2932.75,1103.51 C 2935.02,1105.21 2936.97,1107.47 2938.38,1110.23 2939.99,1113.38 2940.34,1116.77 2939.77,1119.9 L 2883.77,1119.9 C 2879.76,1119.9 2876.5,1116.23 2876.5,1111.7 2876.5,1107.18 2879.76,1103.51 2883.77,1103.51 L 2900.72,1103.51 C 2904.71,1095.82 2910.94,1083.84 2916.86,1072.45 2918.63,1069.04 2920.38,1065.67 2922.03,1062.5 2919.02,1056.7 2915.45,1049.84 2915.45,1049.84 2913.42,1045.93 2914.58,1040.92 2918.04,1038.63 2919.17,1037.88 2920.4,1037.52 2921.62,1037.5 2924.15,1037.47 2926.62,1038.92 2927.99,1041.55 Z M 2943.04,1070.5 C 2943.03,1070.49 2951.82,1087.41 2960.19,1103.51 L 2978.23,1103.51 C 2982.24,1103.51 2985.5,1107.18 2985.5,1111.7 2985.5,1116.23 2982.24,1119.9 2978.23,1119.9 L 2968.7,1119.9 C 2972.44,1127.08 2975.05,1132.11 2975.05,1132.11 2977.08,1136.02 2975.92,1141.03 2972.46,1143.32 2971.3,1144.08 2970.04,1144.44 2968.79,1144.44 2966.29,1144.44 2963.86,1143 2962.51,1140.39 L 2939.63,1096.36 C 2936.6,1090.02 2936.72,1082.33 2940.03,1076.12 L 2943.03,1070.49 2943.04,1070.5 Z M 2893.3,1128.1 C 2897.04,1128.23 2900.15,1130.13 2902.27,1132.93 L 2898.37,1140.45 C 2897.01,1143.05 2894.58,1144.5 2892.09,1144.5 2890.84,1144.5 2889.58,1144.14 2888.42,1143.38 2884.96,1141.09 2883.8,1136.07 2885.83,1132.17 L 2887.44,1129.06 C 2889.31,1128.4 2891.28,1128.04 2893.3,1128.1 Z M 2893.3,1128.1" />
        </g>
        <g id="Heavy-M">
            <path id="appstore-bezier30" stroke="rgb(0, 0, 0)" stroke-width="4" stroke-linecap="round" stroke-linejoin="round" stroke-miterlimit="10" fill="rgb(0, 0, 0)" d="M 2632.49,1041.55 C 2632.49,1041.55 2633.62,1043.74 2634.95,1046.29 2636.5,1043.32 2637.41,1041.55 2637.41,1041.55 2639.44,1037.65 2643.89,1036.34 2647.36,1038.63 2650.82,1040.91 2651.98,1045.93 2649.96,1049.83 2649.96,1049.83 2640.69,1067.66 2632.11,1084.18 2628.35,1091.41 2624.73,1098.39 2622.06,1103.51 L 2637.25,1103.51 C 2639.52,1105.21 2641.47,1107.47 2642.88,1110.23 2644.49,1113.38 2644.84,1116.77 2644.27,1119.9 L 2588.27,1119.9 C 2584.26,1119.9 2581,1116.23 2581,1111.7 2581,1107.18 2584.26,1103.51 2588.27,1103.51 L 2605.22,1103.51 C 2609.21,1095.82 2615.44,1083.84 2621.36,1072.45 2623.13,1069.04 2624.88,1065.67 2626.53,1062.5 2623.52,1056.7 2619.95,1049.84 2619.95,1049.84 2617.92,1045.93 2619.08,1040.92 2622.54,1038.63 2623.67,1037.88 2624.9,1037.52 2626.12,1037.5 2628.65,1037.47 2631.12,1038.92 2632.49,1041.55 Z M 2647.54,1070.5 C 2647.53,1070.49 2656.32,1087.41 2664.69,1103.51 L 2682.73,1103.51 C 2686.74,1103.51 2690,1107.18 2690,1111.7 2690,1116.23 2686.74,1119.9 2682.73,1119.9 L 2673.2,1119.9 C 2676.94,1127.08 2679.55,1132.11 2679.55,1132.11 2681.58,1136.02 2680.42,1141.03 2676.96,1143.32 2675.8,1144.08 2674.54,1144.44 2673.29,1144.44 2670.79,1144.44 2668.36,1143 2667.01,1140.39 L 2644.13,1096.36 C 2641.1,1090.02 2641.22,1082.33 2644.53,1076.12 L 2647.53,1070.49 2647.54,1070.5 Z M 2597.8,1128.1 C 2601.54,1128.23 2604.65,1130.13 2606.77,1132.93 L 2602.87,1140.45 C 2601.51,1143.05 2599.08,1144.5 2596.59,1144.5 2595.34,1144.5 2594.08,1144.14 2592.92,1143.38 2589.46,1141.09 2588.3,1136.07 2590.33,1132.17 L 2591.94,1129.06 C 2593.81,1128.4 2595.78,1128.04 2597.8,1128.1 Z M 2597.8,1128.1" />
        </g>
        <g id="Bold-M">
            <path id="appstore-bezier31" stroke="rgb(0, 0, 0)" stroke-width="3" stroke-linecap="round" stroke-linejoin="round" stroke-miterlimit="10" fill="rgb(0, 0, 0)" d="M 2338.49,1041.55 C 2338.49,1041.55 2339.62,1043.74 2340.95,1046.29 2342.5,1043.32 2343.41,1041.55 2343.41,1041.55 2345.44,1037.65 2349.89,1036.34 2353.36,1038.63 2356.82,1040.91 2357.98,1045.93 2355.96,1049.83 2355.96,1049.83 2346.69,1067.66 2338.11,1084.18 2334.35,1091.41 2330.73,1098.39 2328.06,1103.51 L 2343.25,1103.51 C 2345.52,1105.21 2347.47,1107.47 2348.88,1110.23 2350.49,1113.38 2350.84,1116.77 2350.27,1119.9 L 2294.27,1119.9 C 2290.26,1119.9 2287,1116.23 2287,1111.7 2287,1107.18 2290.26,1103.51 2294.27,1103.51 L 2311.22,1103.51 C 2315.21,1095.82 2321.44,1083.84 2327.36,1072.45 2329.13,1069.04 2330.88,1065.67 2332.53,1062.5 2329.52,1056.7 2325.95,1049.84 2325.95,1049.84 2323.92,1045.93 2325.08,1040.92 2328.54,1038.63 2329.67,1037.88 2330.9,1037.52 2332.12,1037.5 2334.65,1037.47 2337.12,1038.92 2338.49,1041.55 Z M 2353.54,1070.5 C 2353.53,1070.49 2362.32,1087.41 2370.69,1103.51 L 2388.73,1103.51 C 2392.74,1103.51 2396,1107.18 2396,1111.7 2396,1116.23 2392.74,1119.9 2388.73,1119.9 L 2379.2,1119.9 C 2382.94,1127.08 2385.55,1132.11 2385.55,1132.11 2387.58,1136.02 2386.42,1141.03 2382.96,1143.32 2381.8,1144.08 2380.54,1144.44 2379.29,1144.44 2376.79,1144.44 2374.36,1143 2373.01,1140.39 L 2350.13,1096.36 C 2347.1,1090.02 2347.22,1082.33 2350.53,1076.12 L 2353.53,1070.49 2353.54,1070.5 Z M 2303.8,1128.1 C 2307.54,1128.23 2310.65,1130.13 2312.77,1132.93 L 2308.87,1140.45 C 2307.51,1143.05 2305.08,1144.5 2302.59,1144.5 2301.34,1144.5 2300.08,1144.14 2298.92,1143.38 2295.46,1141.09 2294.3,1136.07 2296.33,1132.17 L 2297.94,1129.06 C 2299.81,1128.4 2301.78,1128.04 2303.8,1128.1 Z M 2303.8,1128.1" />
        </g>
        <g id="Semibold-M">
            <path id="appstore-bezier32" stroke="rgb(0, 0, 0)" stroke-width="2" stroke-linecap="round" stroke-linejoin="round" stroke-miterlimit="10" fill="rgb(0, 0, 0)" d="M 2040.99,1041.55 C 2040.99,1041.55 2042.12,1043.74 2043.45,1046.29 2045,1043.32 2045.91,1041.55 2045.91,1041.55 2047.94,1037.65 2052.39,1036.34 2055.86,1038.63 2059.32,1040.91 2060.48,1045.93 2058.46,1049.83 2058.46,1049.83 2049.19,1067.66 2040.61,1084.18 2036.85,1091.41 2033.23,1098.39 2030.56,1103.51 L 2045.75,1103.51 C 2048.02,1105.21 2049.97,1107.47 2051.38,1110.23 2052.99,1113.38 2053.34,1116.77 2052.77,1119.9 L 1996.77,1119.9 C 1992.76,1119.9 1989.5,1116.23 1989.5,1111.7 1989.5,1107.18 1992.76,1103.51 1996.77,1103.51 L 2013.72,1103.51 C 2017.71,1095.82 2023.94,1083.84 2029.86,1072.45 2031.63,1069.04 2033.38,1065.67 2035.03,1062.5 2032.02,1056.7 2028.45,1049.84 2028.45,1049.84 2026.42,1045.93 2027.58,1040.92 2031.04,1038.63 2032.17,1037.88 2033.4,1037.52 2034.62,1037.5 2037.15,1037.47 2039.62,1038.92 2040.99,1041.55 Z M 2056.04,1070.5 C 2056.03,1070.49 2064.82,1087.41 2073.19,1103.51 L 2091.23,1103.51 C 2095.24,1103.51 2098.5,1107.18 2098.5,1111.7 2098.5,1116.23 2095.24,1119.9 2091.23,1119.9 L 2081.7,1119.9 C 2085.44,1127.08 2088.05,1132.11 2088.05,1132.11 2090.08,1136.02 2088.92,1141.03 2085.46,1143.32 2084.3,1144.08 2083.04,1144.44 2081.79,1144.44 2079.29,1144.44 2076.86,1143 2075.51,1140.39 L 2052.63,1096.36 C 2049.6,1090.02 2049.72,1082.33 2053.03,1076.12 L 2056.03,1070.49 2056.04,1070.5 Z M 2006.3,1128.1 C 2010.04,1128.23 2013.15,1130.13 2015.27,1132.93 L 2011.37,1140.45 C 2010.01,1143.05 2007.58,1144.5 2005.09,1144.5 2003.84,1144.5 2002.58,1144.14 2001.42,1143.38 1997.96,1141.09 1996.8,1136.07 1998.83,1132.17 L 2000.44,1129.06 C 2002.31,1128.4 2004.28,1128.04 2006.3,1128.1 Z M 2006.3,1128.1" />
        </g>
        <g id="Medium-M">
            <path id="appstore-bezier33" stroke="rgb(0, 0, 0)" stroke-width="1" stroke-linecap="round" stroke-linejoin="round" stroke-miterlimit="10" fill="rgb(0, 0, 0)" d="M 1745.49,1041.55 C 1745.49,1041.55 1746.62,1043.74 1747.95,1046.29 1749.5,1043.32 1750.41,1041.55 1750.41,1041.55 1752.44,1037.65 1756.89,1036.34 1760.36,1038.63 1763.82,1040.91 1764.98,1045.93 1762.96,1049.83 1762.96,1049.83 1753.69,1067.66 1745.11,1084.18 1741.35,1091.41 1737.73,1098.39 1735.06,1103.51 L 1750.25,1103.51 C 1752.52,1105.21 1754.47,1107.47 1755.88,1110.23 1757.49,1113.38 1757.84,1116.77 1757.27,1119.9 L 1701.27,1119.9 C 1697.26,1119.9 1694,1116.23 1694,1111.7 1694,1107.18 1697.26,1103.51 1701.27,1103.51 L 1718.22,1103.51 C 1722.21,1095.82 1728.44,1083.84 1734.36,1072.45 1736.13,1069.04 1737.88,1065.67 1739.53,1062.5 1736.52,1056.7 1732.95,1049.84 1732.95,1049.84 1730.92,1045.93 1732.08,1040.92 1735.54,1038.63 1736.67,1037.88 1737.9,1037.52 1739.12,1037.5 1741.65,1037.47 1744.12,1038.92 1745.49,1041.55 Z M 1760.54,1070.5 C 1760.53,1070.49 1769.32,1087.41 1777.69,1103.51 L 1795.73,1103.51 C 1799.74,1103.51 1803,1107.18 1803,1111.7 1803,1116.23 1799.74,1119.9 1795.73,1119.9 L 1786.2,1119.9 C 1789.94,1127.08 1792.55,1132.11 1792.55,1132.11 1794.58,1136.02 1793.42,1141.03 1789.96,1143.32 1788.8,1144.08 1787.54,1144.44 1786.29,1144.44 1783.79,1144.44 1781.36,1143 1780.01,1140.39 L 1757.13,1096.36 C 1754.1,1090.02 1754.22,1082.33 1757.53,1076.12 L 1760.53,1070.49 1760.54,1070.5 Z M 1710.8,1128.1 C 1714.54,1128.23 1717.65,1130.13 1719.77,1132.93 L 1715.87,1140.45 C 1714.51,1143.05 1712.08,1144.5 1709.59,1144.5 1708.34,1144.5 1707.08,1144.14 1705.92,1143.38 1702.46,1141.09 1701.3,1136.07 1703.33,1132.17 L 1704.94,1129.06 C 1706.81,1128.4 1708.78,1128.04 1710.8,1128.1 Z M 1710.8,1128.1" />
        </g>
        <g id="Regular-M">
            <path id="appstore-bezier34" stroke="none" fill="rgb(0, 0, 0)" d="M 1443.99,1041.55 C 1443.99,1041.55 1445.12,1043.74 1446.45,1046.29 1448,1043.32 1448.91,1041.55 1448.91,1041.55 1450.94,1037.65 1455.39,1036.34 1458.86,1038.63 1462.32,1040.91 1463.48,1045.93 1461.46,1049.83 1461.46,1049.83 1452.19,1067.66 1443.61,1084.18 1439.85,1091.41 1436.23,1098.39 1433.56,1103.51 L 1448.75,1103.51 C 1451.02,1105.21 1452.97,1107.47 1454.38,1110.23 1455.99,1113.38 1456.34,1116.77 1455.77,1119.9 L 1399.77,1119.9 C 1395.76,1119.9 1392.5,1116.23 1392.5,1111.7 1392.5,1107.18 1395.76,1103.51 1399.77,1103.51 L 1416.72,1103.51 C 1420.71,1095.82 1426.94,1083.84 1432.86,1072.45 1434.63,1069.04 1436.38,1065.67 1438.03,1062.5 1435.02,1056.7 1431.45,1049.84 1431.45,1049.84 1429.42,1045.93 1430.58,1040.92 1434.04,1038.63 1435.17,1037.88 1436.4,1037.52 1437.62,1037.5 1440.15,1037.47 1442.62,1038.92 1443.99,1041.55 Z M 1459.04,1070.5 C 1459.03,1070.49 1467.82,1087.41 1476.19,1103.51 L 1494.23,1103.51 C 1498.24,1103.51 1501.5,1107.18 1501.5,1111.7 1501.5,1116.23 1498.24,1119.9 1494.23,1119.9 L 1484.7,1119.9 C 1488.44,1127.08 1491.05,1132.11 1491.05,1132.11 1493.08,1136.02 1491.92,1141.03 1488.46,1143.32 1487.3,1144.08 1486.04,1144.44 1484.79,1144.44 1482.29,1144.44 1479.86,1143 1478.51,1140.39 L 1455.63,1096.36 C 1452.6,1090.02 1452.72,1082.33 1456.03,1076.12 L 1459.03,1070.49 1459.04,1070.5 Z M 1409.3,1128.1 C 1413.04,1128.23 1416.15,1130.13 1418.27,1132.93 L 1414.37,1140.45 C 1413.01,1143.05 1410.58,1144.5 1408.09,1144.5 1406.84,1144.5 1405.58,1144.14 1404.42,1143.38 1400.96,1141.09 1399.8,1136.07 1401.83,1132.17 L 1403.44,1129.06 C 1405.31,1128.4 1407.28,1128.04 1409.3,1128.1 Z M 1409.3,1128.1" />
        </g>
        <g id="Light-M">
            <path id="appstore-bezier35" stroke="none" fill="rgb(0, 0, 0)" d="M 1150.99,1041.55 C 1150.99,1041.55 1152.12,1043.74 1153.45,1046.29 1155,1043.32 1155.91,1041.55 1155.91,1041.55 1157.94,1037.65 1162.39,1036.34 1165.86,1038.63 1169.32,1040.91 1170.48,1045.93 1168.46,1049.83 1168.46,1049.83 1159.19,1067.66 1150.61,1084.18 1146.85,1091.41 1143.23,1098.39 1140.56,1103.51 L 1155.75,1103.51 C 1158.02,1105.21 1159.97,1107.47 1161.38,1110.23 1162.99,1113.38 1163.34,1116.77 1162.77,1119.9 L 1106.77,1119.9 C 1102.76,1119.9 1099.5,1116.23 1099.5,1111.7 1099.5,1107.18 1102.76,1103.51 1106.77,1103.51 L 1123.72,1103.51 C 1127.71,1095.82 1133.94,1083.84 1139.86,1072.45 1141.63,1069.04 1143.38,1065.67 1145.03,1062.5 1142.02,1056.7 1138.45,1049.84 1138.45,1049.84 1136.42,1045.93 1137.58,1040.92 1141.04,1038.63 1142.17,1037.88 1143.4,1037.52 1144.62,1037.5 1147.15,1037.47 1149.62,1038.92 1150.99,1041.55 Z M 1166.04,1070.5 C 1166.03,1070.49 1174.82,1087.41 1183.19,1103.51 L 1201.23,1103.51 C 1205.24,1103.51 1208.5,1107.18 1208.5,1111.7 1208.5,1116.23 1205.24,1119.9 1201.23,1119.9 L 1191.7,1119.9 C 1195.44,1127.08 1198.05,1132.11 1198.05,1132.11 1200.08,1136.02 1198.92,1141.03 1195.46,1143.32 1194.3,1144.08 1193.04,1144.44 1191.79,1144.44 1189.29,1144.44 1186.86,1143 1185.51,1140.39 L 1162.63,1096.36 C 1159.6,1090.02 1159.72,1082.33 1163.03,1076.12 L 1166.03,1070.49 1166.04,1070.5 Z M 1116.3,1128.1 C 1120.04,1128.23 1123.15,1130.13 1125.27,1132.93 L 1121.37,1140.45 C 1120.01,1143.05 1117.58,1144.5 1115.09,1144.5 1113.84,1144.5 1112.58,1144.14 1111.42,1143.38 1107.96,1141.09 1106.8,1136.07 1108.83,1132.17 L 1110.44,1129.06 C 1112.31,1128.4 1114.28,1128.04 1116.3,1128.1 Z M 1116.3,1128.1" />
        </g>
        <g id="Thin-M">
            <path id="appstore-bezier36" stroke="none" fill="rgb(0, 0, 0)" d="M 856.49,1041.05 C 856.49,1041.05 857.62,1043.24 858.95,1045.79 860.5,1042.82 861.41,1041.05 861.41,1041.05 863.44,1037.15 867.89,1035.84 871.36,1038.13 874.82,1040.41 875.98,1045.43 873.96,1049.33 873.96,1049.33 864.69,1067.16 856.11,1083.68 852.35,1090.91 848.73,1097.89 846.06,1103.01 L 861.25,1103.01 C 863.52,1104.71 865.47,1106.97 866.88,1109.73 868.49,1112.88 868.84,1116.27 868.27,1119.4 L 812.27,1119.4 C 808.26,1119.4 805,1115.73 805,1111.2 805,1106.68 808.26,1103.01 812.27,1103.01 L 829.22,1103.01 C 833.21,1095.32 839.44,1083.34 845.36,1071.95 847.13,1068.54 848.88,1065.17 850.53,1062 847.52,1056.2 843.95,1049.34 843.95,1049.34 841.92,1045.43 843.08,1040.42 846.54,1038.13 847.67,1037.38 848.9,1037.02 850.12,1037 852.65,1036.97 855.12,1038.42 856.49,1041.05 Z M 871.54,1070 C 871.53,1069.99 880.32,1086.91 888.69,1103.01 L 906.73,1103.01 C 910.74,1103.01 914,1106.68 914,1111.2 914,1115.73 910.74,1119.4 906.73,1119.4 L 897.2,1119.4 C 900.94,1126.58 903.55,1131.61 903.55,1131.61 905.58,1135.52 904.42,1140.53 900.96,1142.82 899.8,1143.58 898.54,1143.94 897.29,1143.94 894.79,1143.94 892.36,1142.5 891.01,1139.89 L 868.13,1095.86 C 865.1,1089.52 865.22,1081.83 868.53,1075.62 L 871.53,1069.99 871.54,1070 Z M 821.8,1127.6 C 825.54,1127.73 828.65,1129.63 830.77,1132.43 L 826.87,1139.95 C 825.51,1142.55 823.08,1144 820.59,1144 819.34,1144 818.08,1143.64 816.92,1142.88 813.46,1140.59 812.3,1135.57 814.33,1131.67 L 815.94,1128.56 C 817.81,1127.9 819.78,1127.54 821.8,1127.6 Z M 821.8,1127.6" />
        </g>
        <g id="Ultralight-M">
            <path id="appstore-bezier37" stroke="none" fill="rgb(0, 0, 0)" d="M 557.49,1041.05 C 557.49,1041.05 558.62,1043.24 559.95,1045.79 561.5,1042.82 562.41,1041.05 562.41,1041.05 564.44,1037.15 568.89,1035.84 572.36,1038.13 575.82,1040.41 576.98,1045.43 574.96,1049.33 574.96,1049.33 565.69,1067.16 557.11,1083.68 553.35,1090.91 549.73,1097.89 547.06,1103.01 L 562.25,1103.01 C 564.52,1104.71 566.47,1106.97 567.88,1109.73 569.49,1112.88 569.84,1116.27 569.27,1119.4 L 513.27,1119.4 C 509.26,1119.4 506,1115.73 506,1111.2 506,1106.68 509.26,1103.01 513.27,1103.01 L 530.22,1103.01 C 534.21,1095.32 540.44,1083.34 546.36,1071.95 548.13,1068.54 549.88,1065.17 551.53,1062 548.52,1056.2 544.95,1049.34 544.95,1049.34 542.92,1045.43 544.08,1040.42 547.54,1038.13 548.67,1037.38 549.9,1037.02 551.12,1037 553.65,1036.97 556.12,1038.42 557.49,1041.05 Z M 572.54,1070 C 572.53,1069.99 581.32,1086.91 589.69,1103.01 L 607.73,1103.01 C 611.74,1103.01 615,1106.68 615,1111.2 615,1115.73 611.74,1119.4 607.73,1119.4 L 598.2,1119.4 C 601.94,1126.58 604.55,1131.61 604.55,1131.61 606.58,1135.52 605.42,1140.53 601.96,1142.82 600.8,1143.58 599.54,1143.94 598.29,1143.94 595.79,1143.94 593.36,1142.5 592.01,1139.89 L 569.13,1095.86 C 566.1,1089.52 566.22,1081.83 569.53,1075.62 L 572.53,1069.99 572.54,1070 Z M 522.8,1127.6 C 526.54,1127.73 529.65,1129.63 531.77,1132.43 L 527.87,1139.95 C 526.51,1142.55 524.08,1144 521.59,1144 520.34,1144 519.08,1143.64 517.92,1142.88 514.46,1140.59 513.3,1135.57 515.33,1131.67 L 516.94,1128.56 C 518.81,1127.9 520.78,1127.54 522.8,1127.6 Z M 522.8,1127.6" />
        </g>
        <g id="Black-S">
            <path id="appstore-bezier40" stroke="rgb(0, 0, 0)" stroke-width="5" stroke-linecap="round" stroke-linejoin="round" stroke-miterlimit="10" fill="rgb(0, 0, 0)" d="M 2932.43,626.8 C 2932.43,626.8 2933.21,628.31 2934.12,630.08 2935.19,628.02 2935.82,626.8 2935.82,626.8 2937.21,624.1 2940.28,623.2 2942.66,624.78 2945.04,626.36 2945.84,629.83 2944.45,632.53 2944.45,632.53 2938.07,644.86 2932.17,656.28 2929.58,661.28 2927.09,666.11 2925.25,669.65 L 2935.7,669.65 C 2937.26,670.83 2938.61,672.39 2939.57,674.3 2940.68,676.48 2940.93,678.82 2940.53,680.99 L 2902,680.99 C 2899.24,680.99 2897,678.45 2897,675.32 2897,672.19 2899.24,669.65 2902,669.65 L 2913.66,669.65 C 2916.41,664.34 2920.7,656.05 2924.77,648.17 2925.99,645.81 2927.19,643.49 2928.33,641.29 2926.25,637.28 2923.8,632.53 2923.8,632.53 2922.4,629.83 2923.2,626.36 2925.59,624.78 2926.36,624.26 2927.21,624.01 2928.05,624 2929.78,623.98 2931.48,624.98 2932.43,626.8 Z M 2942.78,646.83 C 2942.78,646.82 2948.83,658.51 2954.58,669.65 L 2967,669.65 C 2969.76,669.65 2972,672.19 2972,675.32 2972,678.45 2969.76,680.99 2967,680.99 L 2960.44,680.99 C 2963.01,685.95 2964.81,689.43 2964.81,689.43 2966.21,692.13 2965.41,695.6 2963.03,697.18 2962.23,697.71 2961.36,697.96 2960.5,697.96 2958.78,697.96 2957.11,696.96 2956.18,695.16 L 2940.44,664.71 C 2938.36,660.32 2938.43,655 2940.71,650.71 L 2942.78,646.82 2942.78,646.83 Z M 2908.56,686.66 C 2911.13,686.75 2913.27,688.06 2914.74,690 L 2912.05,695.2 C 2911.11,697 2909.44,698 2907.72,698 2906.87,698 2906,697.75 2905.2,697.22 2902.82,695.64 2902.02,692.17 2903.42,689.47 L 2904.53,687.32 C 2905.82,686.86 2907.17,686.62 2908.56,686.66 Z M 2908.56,686.66" />
        </g>
        <g id="Heavy-S">
            <path id="appstore-bezier26" stroke="rgb(0, 0, 0)" stroke-width="4" stroke-linecap="round" stroke-linejoin="round" stroke-miterlimit="10" fill="rgb(0, 0, 0)" d="M 2634.93,626.8 C 2634.93,626.8 2635.71,628.31 2636.62,630.08 2637.69,628.02 2638.32,626.8 2638.32,626.8 2639.71,624.1 2642.78,623.2 2645.16,624.78 2647.54,626.36 2648.34,629.83 2646.95,632.53 2646.95,632.53 2640.57,644.86 2634.67,656.28 2632.08,661.28 2629.59,666.11 2627.75,669.65 L 2638.2,669.65 C 2639.76,670.83 2641.11,672.39 2642.07,674.3 2643.18,676.48 2643.43,678.82 2643.03,680.99 L 2604.5,680.99 C 2601.74,680.99 2599.5,678.45 2599.5,675.32 2599.5,672.19 2601.74,669.65 2604.5,669.65 L 2616.16,669.65 C 2618.91,664.34 2623.2,656.05 2627.27,648.17 2628.49,645.81 2629.69,643.49 2630.83,641.29 2628.75,637.28 2626.3,632.53 2626.3,632.53 2624.9,629.83 2625.7,626.36 2628.09,624.78 2628.86,624.26 2629.71,624.01 2630.55,624 2632.28,623.98 2633.98,624.98 2634.93,626.8 Z M 2645.28,646.83 C 2645.28,646.82 2651.33,658.51 2657.08,669.65 L 2669.5,669.65 C 2672.26,669.65 2674.5,672.19 2674.5,675.32 2674.5,678.45 2672.26,680.99 2669.5,680.99 L 2662.94,680.99 C 2665.51,685.95 2667.31,689.43 2667.31,689.43 2668.71,692.13 2667.91,695.6 2665.53,697.18 2664.73,697.71 2663.86,697.96 2663,697.96 2661.28,697.96 2659.61,696.96 2658.68,695.16 L 2642.94,664.71 C 2640.86,660.32 2640.93,655 2643.21,650.71 L 2645.28,646.82 2645.28,646.83 Z M 2611.06,686.66 C 2613.63,686.75 2615.77,688.06 2617.24,690 L 2614.55,695.2 C 2613.61,697 2611.94,698 2610.22,698 2609.37,698 2608.5,697.75 2607.7,697.22 2605.32,695.64 2604.52,692.17 2605.92,689.47 L 2607.03,687.32 C 2608.32,686.86 2609.67,686.62 2611.06,686.66 Z M 2611.06,686.66" />
        </g>
        <g id="Bold-S">
            <path id="appstore-bezier20" stroke="rgb(0, 0, 0)" stroke-width="3" stroke-linecap="round" stroke-linejoin="round" stroke-miterlimit="10" fill="rgb(0, 0, 0)" d="M 2336.93,626.8 C 2336.93,626.8 2337.71,628.31 2338.62,630.08 2339.69,628.02 2340.32,626.8 2340.32,626.8 2341.71,624.1 2344.78,623.2 2347.16,624.78 2349.54,626.36 2350.34,629.83 2348.95,632.53 2348.95,632.53 2342.57,644.86 2336.67,656.28 2334.08,661.28 2331.59,666.11 2329.75,669.65 L 2340.2,669.65 C 2341.77,670.83 2343.11,672.39 2344.07,674.3 2345.18,676.48 2345.43,678.82 2345.03,680.99 L 2306.5,680.99 C 2303.74,680.99 2301.5,678.45 2301.5,675.32 2301.5,672.19 2303.74,669.65 2306.5,669.65 L 2318.16,669.65 C 2320.91,664.34 2325.2,656.05 2329.27,648.17 2330.49,645.81 2331.69,643.49 2332.83,641.29 2330.75,637.28 2328.3,632.53 2328.3,632.53 2326.9,629.83 2327.7,626.36 2330.09,624.78 2330.86,624.26 2331.71,624.01 2332.55,624 2334.28,623.98 2335.98,624.98 2336.93,626.8 Z M 2347.28,646.83 C 2347.28,646.82 2353.33,658.51 2359.08,669.65 L 2371.5,669.65 C 2374.26,669.65 2376.5,672.19 2376.5,675.32 2376.5,678.45 2374.26,680.99 2371.5,680.99 L 2364.94,680.99 C 2367.51,685.95 2369.31,689.43 2369.31,689.43 2370.71,692.13 2369.91,695.6 2367.53,697.18 2366.73,697.71 2365.86,697.96 2365,697.96 2363.28,697.96 2361.61,696.96 2360.68,695.16 L 2344.94,664.71 C 2342.86,660.32 2342.93,655 2345.21,650.71 L 2347.28,646.82 2347.28,646.83 Z M 2313.06,686.66 C 2315.63,686.75 2317.77,688.06 2319.23,690 L 2316.55,695.2 C 2315.61,697 2313.94,698 2312.22,698 2311.37,698 2310.5,697.75 2309.7,697.22 2307.32,695.64 2306.52,692.17 2307.92,689.47 L 2309.03,687.32 C 2310.32,686.86 2311.67,686.62 2313.06,686.66 Z M 2313.06,686.66" />
        </g>
        <g id="Semibold-S">
            <path id="appstore-bezier19" stroke="rgb(0, 0, 0)" stroke-width="2" stroke-linecap="round" stroke-linejoin="round" stroke-miterlimit="10" fill="rgb(0, 0, 0)" d="M 2041.43,626.8 C 2041.43,626.8 2042.21,628.31 2043.12,630.08 2044.19,628.02 2044.82,626.8 2044.82,626.8 2046.21,624.1 2049.28,623.2 2051.66,624.78 2054.04,626.36 2054.84,629.83 2053.45,632.53 2053.45,632.53 2047.07,644.86 2041.17,656.28 2038.58,661.28 2036.09,666.11 2034.25,669.65 L 2044.7,669.65 C 2046.27,670.83 2047.61,672.39 2048.57,674.3 2049.68,676.48 2049.93,678.82 2049.53,680.99 L 2011,680.99 C 2008.24,680.99 2006,678.45 2006,675.32 2006,672.19 2008.24,669.65 2011,669.65 L 2022.66,669.65 C 2025.41,664.34 2029.7,656.05 2033.77,648.17 2034.99,645.81 2036.19,643.49 2037.33,641.29 2035.25,637.28 2032.8,632.53 2032.8,632.53 2031.4,629.83 2032.2,626.36 2034.59,624.78 2035.36,624.26 2036.21,624.01 2037.05,624 2038.78,623.98 2040.48,624.98 2041.43,626.8 Z M 2051.78,646.83 C 2051.78,646.82 2057.83,658.51 2063.58,669.65 L 2076,669.65 C 2078.76,669.65 2081,672.19 2081,675.32 2081,678.45 2078.76,680.99 2076,680.99 L 2069.44,680.99 C 2072.01,685.95 2073.81,689.43 2073.81,689.43 2075.21,692.13 2074.41,695.6 2072.03,697.18 2071.23,697.71 2070.36,697.96 2069.5,697.96 2067.78,697.96 2066.11,696.96 2065.18,695.16 L 2049.44,664.71 C 2047.36,660.32 2047.43,655 2049.71,650.71 L 2051.78,646.82 2051.78,646.83 Z M 2017.56,686.66 C 2020.13,686.75 2022.27,688.06 2023.73,690 L 2021.05,695.2 C 2020.11,697 2018.44,698 2016.72,698 2015.87,698 2015,697.75 2014.2,697.22 2011.82,695.64 2011.02,692.17 2012.42,689.47 L 2013.53,687.32 C 2014.82,686.86 2016.17,686.62 2017.56,686.66 Z M 2017.56,686.66" />
        </g>
        <g id="Medium-S">
            <path id="appstore-bezier18" stroke="rgb(0, 0, 0)" stroke-width="1" stroke-linecap="round" stroke-linejoin="round" stroke-miterlimit="10" fill="rgb(0, 0, 0)" d="M 1742.43,626.8 C 1742.43,626.8 1743.21,628.31 1744.12,630.08 1745.19,628.02 1745.82,626.8 1745.82,626.8 1747.21,624.1 1750.28,623.2 1752.66,624.78 1755.04,626.36 1755.84,629.83 1754.45,632.53 1754.45,632.53 1748.07,644.86 1742.17,656.28 1739.58,661.28 1737.09,666.11 1735.25,669.65 L 1745.7,669.65 C 1747.27,670.83 1748.61,672.39 1749.58,674.3 1750.68,676.48 1750.92,678.82 1750.53,680.99 L 1712,680.99 C 1709.24,680.99 1707,678.45 1707,675.32 1707,672.19 1709.24,669.65 1712,669.65 L 1723.66,669.65 C 1726.41,664.34 1730.7,656.05 1734.77,648.17 1735.99,645.81 1737.19,643.49 1738.33,641.29 1736.25,637.28 1733.8,632.53 1733.8,632.53 1732.4,629.83 1733.2,626.36 1735.59,624.78 1736.36,624.26 1737.21,624.01 1738.05,624 1739.78,623.98 1741.48,624.98 1742.43,626.8 Z M 1752.78,646.83 C 1752.78,646.82 1758.83,658.51 1764.58,669.65 L 1777,669.65 C 1779.76,669.65 1782,672.19 1782,675.32 1782,678.45 1779.76,680.99 1777,680.99 L 1770.44,680.99 C 1773.01,685.95 1774.81,689.43 1774.81,689.43 1776.21,692.13 1775.41,695.6 1773.03,697.18 1772.23,697.71 1771.36,697.96 1770.5,697.96 1768.79,697.96 1767.11,696.96 1766.18,695.16 L 1750.44,664.71 C 1748.36,660.32 1748.43,655 1750.71,650.71 L 1752.78,646.82 1752.78,646.83 Z M 1718.56,686.66 C 1721.13,686.75 1723.27,688.06 1724.73,690 L 1722.05,695.2 C 1721.11,697 1719.44,698 1717.72,698 1716.87,698 1716,697.75 1715.2,697.22 1712.82,695.64 1712.02,692.17 1713.42,689.47 L 1714.53,687.32 C 1715.82,686.86 1717.17,686.62 1718.56,686.66 Z M 1718.56,686.66" />
        </g>
        <g id="Regular-S">
            <path id="appstore-bezier17" stroke="none" fill="rgb(0, 0, 0)" d="M 1448.93,626.8 C 1448.93,626.8 1449.71,628.31 1450.62,630.08 1451.69,628.02 1452.32,626.8 1452.32,626.8 1453.71,624.1 1456.78,623.2 1459.16,624.78 1461.54,626.36 1462.34,629.83 1460.95,632.53 1460.95,632.53 1454.57,644.86 1448.67,656.28 1446.08,661.28 1443.59,666.11 1441.75,669.65 L 1452.2,669.65 C 1453.76,670.83 1455.11,672.39 1456.08,674.3 1457.18,676.48 1457.42,678.82 1457.03,680.99 L 1418.5,680.99 C 1415.74,680.99 1413.5,678.45 1413.5,675.32 1413.5,672.19 1415.74,669.65 1418.5,669.65 L 1430.16,669.65 C 1432.91,664.34 1437.2,656.05 1441.27,648.17 1442.49,645.81 1443.69,643.49 1444.83,641.29 1442.75,637.28 1440.3,632.53 1440.3,632.53 1438.9,629.83 1439.7,626.36 1442.09,624.78 1442.86,624.26 1443.71,624.01 1444.55,624 1446.28,623.98 1447.98,624.98 1448.93,626.8 Z M 1459.28,646.83 C 1459.28,646.82 1465.33,658.51 1471.08,669.65 L 1483.5,669.65 C 1486.26,669.65 1488.5,672.19 1488.5,675.32 1488.5,678.45 1486.26,680.99 1483.5,680.99 L 1476.94,680.99 C 1479.51,685.95 1481.31,689.43 1481.31,689.43 1482.71,692.13 1481.91,695.6 1479.53,697.18 1478.73,697.71 1477.86,697.96 1477,697.96 1475.28,697.96 1473.61,696.96 1472.68,695.16 L 1456.94,664.71 C 1454.86,660.32 1454.93,655 1457.21,650.71 L 1459.28,646.82 1459.28,646.83 Z M 1425.06,686.66 C 1427.63,686.75 1429.77,688.06 1431.24,690 L 1428.55,695.2 C 1427.61,697 1425.94,698 1424.22,698 1423.37,698 1422.5,697.75 1421.7,697.22 1419.32,695.64 1418.52,692.17 1419.92,689.47 L 1421.03,687.32 C 1422.32,686.86 1423.67,686.62 1425.06,686.66 Z M 1425.06,686.66" />
        </g>
        <g id="Light-S">
            <path id="appstore-bezier15" stroke="none" fill="rgb(0, 0, 0)" d="M 1152.93,626.8 C 1152.93,626.8 1153.71,628.31 1154.62,630.08 1155.69,628.02 1156.32,626.8 1156.32,626.8 1157.71,624.1 1160.78,623.2 1163.16,624.78 1165.54,626.36 1166.34,629.83 1164.95,632.53 1164.95,632.53 1158.57,644.86 1152.67,656.28 1150.08,661.28 1147.59,666.11 1145.75,669.65 L 1156.2,669.65 C 1157.76,670.83 1159.11,672.39 1160.08,674.3 1161.18,676.48 1161.42,678.82 1161.03,680.99 L 1122.5,680.99 C 1119.74,680.99 1117.5,678.45 1117.5,675.32 1117.5,672.19 1119.74,669.65 1122.5,669.65 L 1134.16,669.65 C 1136.91,664.34 1141.2,656.05 1145.27,648.17 1146.49,645.81 1147.69,643.49 1148.83,641.29 1146.75,637.28 1144.3,632.53 1144.3,632.53 1142.9,629.83 1143.7,626.36 1146.09,624.78 1146.86,624.26 1147.71,624.01 1148.55,624 1150.28,623.98 1151.98,624.98 1152.93,626.8 Z M 1163.28,646.83 C 1163.28,646.82 1169.33,658.51 1175.08,669.65 L 1187.5,669.65 C 1190.26,669.65 1192.5,672.19 1192.5,675.32 1192.5,678.45 1190.26,680.99 1187.5,680.99 L 1180.94,680.99 C 1183.51,685.95 1185.31,689.43 1185.31,689.43 1186.71,692.13 1185.91,695.6 1183.53,697.18 1182.73,697.71 1181.86,697.96 1181,697.96 1179.28,697.96 1177.61,696.96 1176.68,695.16 L 1160.94,664.71 C 1158.86,660.32 1158.93,655 1161.21,650.71 L 1163.28,646.82 1163.28,646.83 Z M 1129.06,686.66 C 1131.63,686.75 1133.77,688.06 1135.24,690 L 1132.55,695.2 C 1131.61,697 1129.94,698 1128.22,698 1127.37,698 1126.5,697.75 1125.7,697.22 1123.32,695.64 1122.52,692.17 1123.92,689.47 L 1125.03,687.32 C 1126.32,686.86 1127.67,686.62 1129.06,686.66 Z M 1129.06,686.66" />
        </g>
        <g id="Thin-S">
            <path id="appstore-bezier14" stroke="none" fill="rgb(0, 0, 0)" d="M 854.43,626.8 C 854.43,626.8 855.21,628.31 856.12,630.08 857.19,628.02 857.82,626.8 857.82,626.8 859.21,624.1 862.27,623.2 864.66,624.78 867.04,626.36 867.84,629.83 866.45,632.53 866.45,632.53 860.07,644.86 854.17,656.28 851.58,661.28 849.09,666.11 847.25,669.65 L 857.7,669.65 C 859.26,670.83 860.61,672.39 861.58,674.3 862.68,676.48 862.92,678.82 862.53,680.99 L 824,680.99 C 821.24,680.99 819,678.45 819,675.32 819,672.19 821.24,669.65 824,669.65 L 835.66,669.65 C 838.41,664.34 842.7,656.05 846.77,648.17 847.99,645.81 849.19,643.49 850.33,641.29 848.25,637.28 845.8,632.53 845.8,632.53 844.4,629.83 845.2,626.36 847.59,624.78 848.36,624.26 849.21,624.01 850.05,624 851.78,623.98 853.48,624.98 854.43,626.8 Z M 864.78,646.83 C 864.78,646.82 870.83,658.51 876.58,669.65 L 889,669.65 C 891.76,669.65 894,672.19 894,675.32 894,678.45 891.76,680.99 889,680.99 L 882.44,680.99 C 885.01,685.95 886.81,689.43 886.81,689.43 888.21,692.13 887.41,695.6 885.02,697.18 884.23,697.71 883.36,697.96 882.5,697.96 880.78,697.96 879.11,696.96 878.18,695.16 L 862.44,664.71 C 860.36,660.32 860.43,655 862.71,650.71 L 864.78,646.82 864.78,646.83 Z M 830.56,686.66 C 833.13,686.75 835.27,688.06 836.74,690 L 834.05,695.2 C 833.11,697 831.44,698 829.73,698 828.87,698 828,697.75 827.2,697.22 824.82,695.64 824.02,692.17 825.42,689.47 L 826.53,687.32 C 827.82,686.86 829.17,686.62 830.56,686.66 Z M 830.56,686.66" />
        </g>
        <g id="Ultralight-S">
            <path id="appstore-bezier12" stroke="none" fill="rgb(0, 0, 0)" d="M 557.43,625.8 C 557.43,625.8 558.21,627.31 559.12,629.08 560.19,627.02 560.82,625.8 560.82,625.8 562.21,623.1 565.27,622.2 567.66,623.78 570.04,625.36 570.84,628.83 569.45,631.53 569.45,631.53 563.07,643.86 557.17,655.28 554.58,660.28 552.09,665.11 550.25,668.65 L 560.7,668.65 C 562.26,669.83 563.61,671.39 564.58,673.3 565.68,675.48 565.92,677.82 565.53,679.99 L 527,679.99 C 524.24,679.99 522,677.45 522,674.32 522,671.19 524.24,668.65 527,668.65 L 538.66,668.65 C 541.41,663.34 545.7,655.05 549.77,647.17 550.99,644.81 552.19,642.49 553.33,640.29 551.25,636.28 548.8,631.53 548.8,631.53 547.4,628.83 548.2,625.36 550.59,623.78 551.36,623.26 552.21,623.01 553.05,623 554.78,622.98 556.48,623.98 557.43,625.8 Z M 567.78,645.83 C 567.78,645.82 573.83,657.51 579.58,668.65 L 592,668.65 C 594.76,668.65 597,671.19 597,674.32 597,677.45 594.76,679.99 592,679.99 L 585.44,679.99 C 588.01,684.95 589.81,688.43 589.81,688.43 591.21,691.13 590.41,694.6 588.02,696.18 587.23,696.71 586.36,696.96 585.5,696.96 583.78,696.96 582.11,695.96 581.18,694.16 L 565.44,663.71 C 563.36,659.32 563.43,654 565.71,649.71 L 567.78,645.82 567.78,645.83 Z M 533.56,685.66 C 536.13,685.75 538.27,687.06 539.74,689 L 537.04,694.2 C 536.11,696 534.44,697 532.73,697 531.87,697 531,696.75 530.2,696.22 527.82,694.64 527.02,691.17 528.42,688.47 L 529.53,686.32 C 530.82,685.86 532.17,685.62 533.56,685.66 Z M 533.56,685.66" />
        </g>
    </g>
</svg>
